<svg width="60" height="17" viewBox="0 0 60 17" fill="none" xmlns="http://www.w3.org/2000/svg">
<path d="M2.11719 15.6679V5.16992H4.23483V15.6679H2.11719Z" fill="white"/>
<path d="M12.3525 2.82366C10.8231 2.70015 9.99955 3.31768 9.99955 4.92326V5.17027H12.3525V7.39338H9.99955V15.7918H7.76427V7.26988H6.23486V5.17027H7.76427V4.92326C7.76427 3.44119 8.11721 2.32964 8.94073 1.5886C9.76426 0.847565 10.8231 0.477047 12.3525 0.600553V2.82366Z" fill="white"/>
<path d="M16.5879 6.89944C17.1761 5.54087 18.1173 4.92334 19.6467 4.92334V7.39346C18.8231 7.39346 18.1173 7.51697 17.529 8.01099C16.9408 8.50501 16.5879 9.24605 16.5879 10.3576V15.6684H14.4702V5.17035H16.5879V6.89944Z" fill="white"/>
<path d="M28.8236 5.17035H30.9412V15.6684H28.8236V14.1863C28.0001 15.4213 26.8236 16.0389 25.2942 16.0389C23.8824 16.0389 22.706 15.5449 21.7648 14.4333C20.8236 13.3217 20.353 12.0867 20.353 10.4811C20.353 8.87553 20.8236 7.64047 21.7648 6.52892C22.706 5.41736 23.8824 4.92334 25.2942 4.92334C26.8236 4.92334 28.0001 5.54087 28.8236 6.65242V5.17035ZM23.4118 12.8277C24.0001 13.4453 24.8236 13.8158 25.6471 13.8158C26.4707 13.8158 27.2942 13.4453 27.8824 12.8277C28.4706 12.2102 28.8236 11.3457 28.8236 10.3576C28.8236 9.36955 28.4706 8.62852 27.8824 7.88748C27.2942 7.14645 26.4707 6.89944 25.6471 6.89944C24.8236 6.89944 24.0001 7.26995 23.4118 8.01099C22.8236 8.75203 22.4707 9.49306 22.4707 10.4811C22.4707 11.3457 22.8236 12.2102 23.4118 12.8277Z" fill="white"/>
<path d="M44.1174 4.7998C45.2939 4.7998 46.1174 5.17032 46.8233 5.91136C47.5291 6.65239 47.8821 7.76395 47.8821 8.99901V15.5448H45.7645V9.24602C45.7645 8.50498 45.6468 7.88745 45.2939 7.51694C44.9409 7.14642 44.4703 6.89941 43.8821 6.89941C43.1762 6.89941 42.7056 7.14642 42.2351 7.64044C41.8821 8.13446 41.6468 8.752 41.6468 9.74004V15.6683H39.5292V9.24602C39.5292 8.50498 39.4115 7.88745 39.0586 7.51694C38.7057 7.14642 38.2351 6.89941 37.6468 6.89941C36.941 6.89941 36.4704 7.14642 35.9998 7.64044C35.5292 8.13446 35.2939 8.8755 35.2939 9.74004V15.6683H33.1763V5.17032H35.2939V6.40538C35.8821 5.41733 36.941 4.92331 38.1174 4.92331C39.4115 4.92331 40.3527 5.41733 40.9409 6.52889C41.7645 5.41733 42.8233 4.7998 44.1174 4.7998Z" fill="white"/>
<path d="M51.9999 11.3456C52.1175 12.0867 52.4705 12.7042 53.0587 13.1982C53.647 13.5687 54.3528 13.8157 55.1764 13.8157C56.3528 13.8157 57.1763 13.3217 57.7646 12.4572L59.5293 13.5687C58.5881 15.0508 57.0587 15.9153 55.1764 15.9153C53.5293 15.9153 52.2352 15.4213 51.1764 14.3098C50.1176 13.3217 49.647 11.9631 49.647 10.3576C49.647 8.75199 50.1176 7.51693 51.1764 6.40538C52.1175 5.29383 53.4117 4.7998 54.9411 4.7998C56.4705 4.7998 57.6469 5.29383 58.5881 6.40538C59.5293 7.51693 59.9999 8.75199 59.9999 10.3576C59.9999 10.6046 59.9999 10.8516 59.8822 11.3456H51.9999ZM51.9999 9.49303H57.8822C57.7646 8.62849 57.4116 8.01096 56.8234 7.51693C56.2352 7.02291 55.6469 6.89941 54.9411 6.89941C54.1175 6.89941 53.4117 7.14642 52.9411 7.64044C52.4705 8.01096 52.1175 8.75199 51.9999 9.49303Z" fill="white"/>
<path d="M2.11764 2.95996H0V5.18307H2.11764V2.95996Z" fill="white"/>
</svg>
