<svg width="1215" height="198" viewBox="0 0 1215 198" fill="none" xmlns="http://www.w3.org/2000/svg">
<path d="M63.7828 150.2L31.1828 59.4C29.7161 55.4 28.4495 52.0667 27.3828 49.4C26.4495 46.7333 25.5828 44.4667 24.7828 42.6C24.1161 40.7333 23.5161 39.2 22.9828 38C22.4495 36.8 21.9828 35.6667 21.5828 34.6C20.1161 31.2667 18.5828 28.7333 16.9828 27C15.5161 25.1333 13.9828 23.8 12.3828 23C10.7828 22.0667 9.11615 21.5333 7.38281 21.4C5.78281 21.2667 4.11615 21.2 2.38281 21.2L1.38281 20.4L0.982812 16.8L1.18281 16C2.11615 16 3.44948 16.0667 5.18281 16.2C7.04948 16.3333 8.98281 16.4667 10.9828 16.6C12.9828 16.7333 14.9161 16.8667 16.7828 17C18.6495 17.1333 20.0495 17.2 20.9828 17.2H27.7828C28.7161 17.2 30.2495 17.1333 32.3828 17C34.5161 16.8667 36.7161 16.7333 38.9828 16.6C41.3828 16.4667 43.6495 16.3333 45.7828 16.2C47.9161 16.0667 49.4495 16 50.3828 16L50.7828 16.8L50.1828 20.4L49.1828 21.2C45.3161 21.2 42.3161 21.6667 40.1828 22.6C38.0495 23.4 36.9828 25.7333 36.9828 29.6C36.9828 32.6667 37.9828 37 39.9828 42.6C42.1161 48.0667 44.7161 55 47.7828 63.4L61.3828 100.2C63.9161 107.133 66.1161 113.4 67.9828 119C69.9828 124.467 71.7828 129.2 73.3828 133.2C74.8495 129.333 76.5828 124.733 78.5828 119.4C80.7161 114.067 83.1162 107.667 85.7828 100.2L99.3828 63.4C101.249 58.2 102.916 53.6 104.383 49.6C105.983 45.6 107.316 42 108.383 38.8C107.716 36.6667 106.916 34.6 105.983 32.6C105.183 30.6 104.116 28.8 102.783 27.2C101.583 25.6 99.9828 24.2667 97.9828 23.2C95.9828 22.1333 93.5162 21.4667 90.5828 21.2L89.5828 20.4L89.1828 16.8L89.3828 16C90.3161 16 91.6495 16.0667 93.3828 16.2C95.2495 16.3333 97.1161 16.4667 98.9828 16.6C100.983 16.7333 102.849 16.8667 104.583 17C106.449 17.1333 107.849 17.2 108.783 17.2H115.383C116.316 17.2 117.783 17.1333 119.783 17C121.783 16.8667 123.916 16.7333 126.183 16.6C128.449 16.4667 130.583 16.3333 132.583 16.2C134.583 16.0667 136.049 16 136.983 16L137.383 16.8L136.783 20.4L135.783 21.2C134.316 21.2 132.716 21.4667 130.983 22C129.383 22.4 127.849 23.0667 126.383 24C125.049 24.9333 123.916 26.0667 122.983 27.4C122.183 28.7333 121.783 30.2667 121.783 32C121.783 33.3333 121.916 34.2667 122.183 34.8C122.983 38.1333 124.249 42.1333 125.983 46.8C127.849 51.4667 129.916 57 132.183 63.4L145.783 100.2C148.316 107 150.583 113.267 152.583 119C154.583 124.6 156.316 129.333 157.783 133.2C159.249 129.333 160.983 124.733 162.983 119.4C165.116 114.067 167.516 107.667 170.183 100.2L183.783 63.4C186.849 55 189.383 48.0667 191.383 42.6C193.516 37 194.583 32.6667 194.583 29.6C194.583 25.7333 193.516 23.4 191.383 22.6C189.249 21.6667 186.249 21.2 182.383 21.2L181.583 20.4L180.983 16.8L181.383 16C182.316 16 183.783 16.0667 185.783 16.2C187.783 16.3333 189.849 16.4667 191.983 16.6C194.116 16.7333 196.183 16.8667 198.183 17C200.183 17.1333 201.649 17.2 202.583 17.2H206.383C207.316 17.2 208.649 17.1333 210.383 17C212.249 16.8667 214.183 16.7333 216.183 16.6C218.183 16.4667 220.116 16.3333 221.983 16.2C223.849 16.0667 225.249 16 226.183 16L226.583 16.8L225.983 20.4L224.983 21.2C223.249 21.2 221.583 21.2667 219.983 21.4C218.383 21.5333 216.783 22.0667 215.183 23C213.583 23.8 211.983 25.1333 210.383 27C208.916 28.7333 207.383 31.2667 205.783 34.6C205.383 35.6667 204.783 37 203.983 38.6C203.316 40.2 202.116 43.2 200.383 47.6C198.649 52 196.116 58.3333 192.783 66.6C189.583 74.7333 185.249 85.8667 179.783 100C177.916 104.667 175.983 109.533 173.983 114.6C172.116 119.533 170.249 124.267 168.383 128.8C166.649 133.2 165.116 137.133 163.783 140.6C162.449 144.067 161.516 146.533 160.983 148L150.583 150.2H148.183L113.383 53.8C111.516 58.4667 109.116 64.4667 106.183 71.8C103.383 79.1333 99.7828 88.5333 95.3828 100C93.6495 104.667 91.7828 109.533 89.7828 114.6C87.7828 119.533 85.8495 124.267 83.9828 128.8C82.2495 133.2 80.7161 137.133 79.3828 140.6C78.0495 144.067 77.1161 146.533 76.5828 148L66.1828 150.2H63.7828ZM304.852 94.2L301.652 95.6C294.452 95.6 287.052 95.6667 279.452 95.8C271.852 95.9333 264.385 96 257.052 96H233.452C233.318 96.9333 233.252 97.8667 233.252 98.8C233.252 99.6 233.252 100.4 233.252 101.2C233.252 106.267 233.985 111.133 235.452 115.8C236.918 120.333 239.185 124.333 242.252 127.8C245.452 131.267 249.518 134.067 254.452 136.2C259.385 138.2 265.385 139.2 272.452 139.2C276.585 139.2 280.985 138.8 285.652 138C290.452 137.067 294.852 135.467 298.852 133.2L300.852 134.4V138L298.852 140.2C295.652 142.733 291.118 145.067 285.252 147.2C279.385 149.2 272.852 150.2 265.652 150.2C258.585 150.2 252.118 149.067 246.252 146.8C240.518 144.4 235.518 141.067 231.252 136.8C227.118 132.533 223.852 127.467 221.452 121.6C219.185 115.733 218.052 109.2 218.052 102C218.052 94.6667 219.252 88 221.652 82C224.052 76 227.318 70.8667 231.452 66.6C235.718 62.3333 240.652 59 246.252 56.6C251.985 54.2 258.118 53 264.652 53C268.118 53 271.985 53.4667 276.252 54.4C280.652 55.3333 284.852 57.1333 288.852 59.8C292.852 62.3333 296.452 66 299.652 70.8C302.852 75.4667 305.052 81.6667 306.252 89.4L304.852 94.2ZM264.852 62C260.585 62 256.718 62.7333 253.252 64.2C249.918 65.5333 246.918 67.4 244.252 69.8C241.718 72.0667 239.585 74.8 237.852 78C236.252 81.0667 235.118 84.3333 234.452 87.8H242.252C249.452 87.8 256.452 87.7333 263.252 87.6C270.052 87.3333 277.185 87 284.652 86.6C286.385 86.4667 287.518 86 288.052 85.2C288.718 84.4 289.052 83.4667 289.052 82.4C289.052 81.6 288.985 80.8667 288.852 80.2C288.718 79.5333 288.518 78.8667 288.252 78.2C286.785 73.1333 284.052 69.2 280.052 66.4C276.052 63.4667 270.985 62 264.852 62ZM319.13 2.59999L319.93 1.8H323.53C325.796 1.8 328.663 1.8 332.13 1.8C335.596 1.66666 338.596 1.39999 341.13 0.999997L348.33 -1.90735e-06L349.53 1.8C349.263 2.33333 349.063 3.33332 348.93 4.8C348.796 6.13333 348.663 7.6 348.53 9.2C348.396 10.8 348.263 12.3333 348.13 13.8C348.13 15.2667 348.13 16.4 348.13 17.2C347.996 19.3333 347.863 21.3333 347.73 23.2C347.73 25.0667 347.663 27.2667 347.53 29.8C347.53 32.3333 347.53 35.4 347.53 39C347.53 42.6 347.53 47.2 347.53 52.8V96.4C347.53 102 347.53 106.6 347.53 110.2C347.663 113.8 347.73 116.867 347.73 119.4C347.863 121.933 347.93 124.133 347.93 126C348.063 127.867 348.196 130 348.33 132.4C348.596 135.2 348.863 137.333 349.13 138.8C349.53 140.133 350.263 141.267 351.33 142.2C352.396 143.133 353.863 143.733 355.73 144C357.73 144.267 359.73 144.4 361.73 144.4L362.73 145.4L363.13 148L362.73 148.8C361.796 148.8 360.396 148.733 358.53 148.6C356.663 148.467 354.663 148.333 352.53 148.2C350.396 148.2 348.396 148.133 346.53 148C344.663 148 343.263 148 342.33 148H339.53C338.596 148 337.13 148 335.13 148C333.263 148.133 331.263 148.2 329.13 148.2C327.13 148.333 325.13 148.467 323.13 148.6C321.263 148.733 319.863 148.8 318.93 148.8L318.73 148L318.93 145.2L319.73 144.4C321.863 144.4 323.93 144.333 325.93 144.2C328.063 143.933 329.663 143.267 330.73 142.2C331.796 141.267 332.463 140.067 332.73 138.6C333.13 137.133 333.463 135.067 333.73 132.4C333.863 130.667 333.93 128.933 333.93 127.2C334.063 125.467 334.13 123.467 334.13 121.2C334.263 118.8 334.33 116.067 334.33 113C334.33 109.8 334.33 105.867 334.33 101.2V53.2C334.33 47.7333 334.33 43.1333 334.33 39.4C334.33 35.5333 334.263 32.2 334.13 29.4C334.13 26.6 334.063 24.1333 333.93 22C333.93 19.8667 333.863 17.7333 333.73 15.6C333.596 14.1333 333.196 12.8667 332.53 11.8C331.996 10.7333 331.53 9.93333 331.13 9.4C329.796 7.93332 328.13 6.99999 326.13 6.6C324.13 6.19999 322.063 5.99999 319.93 5.99999L319.13 5.19999V2.59999ZM373.036 2.59999L373.836 1.8H377.436C379.703 1.8 382.569 1.8 386.036 1.8C389.503 1.66666 392.503 1.39999 395.036 0.999997L402.236 -1.90735e-06L403.436 1.8C403.169 2.33333 402.969 3.33332 402.836 4.8C402.703 6.13333 402.569 7.6 402.436 9.2C402.303 10.8 402.169 12.3333 402.036 13.8C402.036 15.2667 402.036 16.4 402.036 17.2C401.903 19.3333 401.769 21.3333 401.636 23.2C401.636 25.0667 401.569 27.2667 401.436 29.8C401.436 32.3333 401.436 35.4 401.436 39C401.436 42.6 401.436 47.2 401.436 52.8V96.4C401.436 102 401.436 106.6 401.436 110.2C401.569 113.8 401.636 116.867 401.636 119.4C401.769 121.933 401.836 124.133 401.836 126C401.969 127.867 402.103 130 402.236 132.4C402.503 135.2 402.769 137.333 403.036 138.8C403.436 140.133 404.169 141.267 405.236 142.2C406.303 143.133 407.769 143.733 409.636 144C411.636 144.267 413.636 144.4 415.636 144.4L416.636 145.4L417.036 148L416.636 148.8C415.703 148.8 414.303 148.733 412.436 148.6C410.569 148.467 408.569 148.333 406.436 148.2C404.303 148.2 402.303 148.133 400.436 148C398.569 148 397.169 148 396.236 148H393.436C392.503 148 391.036 148 389.036 148C387.169 148.133 385.169 148.2 383.036 148.2C381.036 148.333 379.036 148.467 377.036 148.6C375.169 148.733 373.769 148.8 372.836 148.8L372.636 148L372.836 145.2L373.636 144.4C375.769 144.4 377.836 144.333 379.836 144.2C381.969 143.933 383.569 143.267 384.636 142.2C385.703 141.267 386.369 140.067 386.636 138.6C387.036 137.133 387.369 135.067 387.636 132.4C387.769 130.667 387.836 128.933 387.836 127.2C387.969 125.467 388.036 123.467 388.036 121.2C388.169 118.8 388.236 116.067 388.236 113C388.236 109.8 388.236 105.867 388.236 101.2V53.2C388.236 47.7333 388.236 43.1333 388.236 39.4C388.236 35.5333 388.169 32.2 388.036 29.4C388.036 26.6 387.969 24.1333 387.836 22C387.836 19.8667 387.769 17.7333 387.636 15.6C387.503 14.1333 387.103 12.8667 386.436 11.8C385.903 10.7333 385.436 9.93333 385.036 9.4C383.703 7.93332 382.036 6.99999 380.036 6.6C378.036 6.19999 375.969 5.99999 373.836 5.99999L373.036 5.19999V2.59999ZM434.142 141C434.142 138.467 435.009 136.267 436.742 134.4C438.476 132.4 440.676 131.4 443.342 131.4C445.876 131.4 448.076 132.4 449.942 134.4C451.942 136.267 452.942 138.467 452.942 141C452.942 143.533 451.942 145.733 449.942 147.6C448.076 149.333 445.876 150.2 443.342 150.2C440.676 150.2 438.476 149.333 436.742 147.6C435.009 145.733 434.142 143.533 434.142 141ZM497.102 148H467.102C472.302 141.2 476.302 127.6 476.302 106.6V49.4C476.302 28.4 472.302 14.8 467.102 7.99999H496.102C545.102 7.99999 575.502 36.2 575.502 77.8C575.502 119.8 545.102 148 497.102 148ZM488.902 9.99999V146H497.102C528.902 146 560.502 122.2 560.502 77.8C560.502 33.6 528.102 9.99999 496.102 9.99999H488.902ZM683.536 100.2H683.736C683.336 127 660.736 149.6 633.136 149.6C605.336 149.6 582.736 127.8 582.736 98.6C582.736 68.4 606.136 46.4 634.536 46.4C657.536 46.4 673.536 62 673.536 84.6H596.336C595.736 87.8 595.536 91 595.536 94.6C595.536 119.6 614.536 136.8 636.936 136.8C662.736 136.8 680.136 120.8 683.536 100.2ZM632.936 48.6C615.936 48.6 600.736 61.4 596.736 82.6H629.536C651.536 82.6 657.336 74.2 657.336 65.8C657.336 55.2 646.336 48.6 632.936 48.6ZM760.452 120.2C762.252 138.2 744.052 149.6 723.052 149.6C708.252 149.6 698.052 146.6 689.852 143.8L688.252 112.6H688.652C700.052 141.8 713.852 147.6 724.652 147.4C739.652 147 749.452 139.8 749.252 128C749.052 115.8 734.652 110.6 720.052 103.2C704.652 95.4 689.452 88.6 688.652 72.6C687.852 55.4 702.852 46.4 725.452 46.4C738.452 46.4 746.652 49.8 753.452 53L755.052 81.4H754.652C746.652 62.4 738.452 48.6 720.852 48.6C709.052 48.6 697.852 55.2 698.652 66.2C699.452 78.6 711.852 82.8 725.852 89.8C742.452 98.2 758.852 105 760.452 120.2ZM766.939 23.6C766.939 17.8 771.739 13 777.539 13C783.539 13 787.939 17.8 787.939 23.6C787.939 29.4 783.539 34 777.539 34C771.739 34 766.939 29.4 766.939 23.6ZM765.339 57.8V57L786.539 46.4V113C786.539 131.4 790.539 143.4 795.939 148H773.539L774.739 87.8C774.939 72.8 771.539 62.8 765.339 57.8ZM794.328 180.6C794.328 162.2 812.328 153.4 833.928 142.8C862.528 128.8 873.528 116.6 873.528 94.2C873.528 70.2 858.128 49.8 835.328 49.8C820.328 49.8 811.728 63.6 811.728 80.4C811.728 104 826.328 122.4 850.528 126.2C846.128 127.8 841.328 128.6 836.528 128.6C814.728 128.6 799.728 112 799.728 88.4C799.728 63.6 819.128 46.4 843.728 46.4C854.528 46.4 863.328 49.6 870.128 54.6L878.928 32.6H897.728V32.8C886.928 39.2 880.528 44.6 870.528 55C881.528 63.2 886.728 74.8 886.728 86C886.728 105.8 876.528 119.6 856.128 132.4C838.928 143.2 806.128 166.8 806.128 186.6C806.128 192.2 810.128 195 813.528 195C833.528 195 855.928 156 890.928 144.2V163.2C860.328 166.8 836.128 197.6 811.728 197.6C801.528 197.6 794.328 190.8 794.328 180.6ZM894.636 57.8V57L915.836 46.4V61.6C923.836 51.6 933.036 46.4 943.636 46.4C961.636 46.4 968.636 56.6 973.836 85.6L979.436 116.8C982.836 136.2 988.836 144 993.836 148H971.636L961.636 88.4C957.836 65.8 951.236 53 937.836 53.2C928.036 53.4 921.836 58 915.836 64V113C915.836 131.4 919.836 143.4 925.236 148H902.836L904.036 87.8C904.236 72.8 900.836 62.8 894.636 57.8ZM1089.81 94.2L1086.61 95.6C1079.41 95.6 1072.01 95.6667 1064.41 95.8C1056.81 95.9333 1049.35 96 1042.01 96H1018.41C1018.28 96.9333 1018.21 97.8667 1018.21 98.8C1018.21 99.6 1018.21 100.4 1018.21 101.2C1018.21 106.267 1018.95 111.133 1020.41 115.8C1021.88 120.333 1024.15 124.333 1027.21 127.8C1030.41 131.267 1034.48 134.067 1039.41 136.2C1044.35 138.2 1050.35 139.2 1057.41 139.2C1061.55 139.2 1065.95 138.8 1070.61 138C1075.41 137.067 1079.81 135.467 1083.81 133.2L1085.81 134.4V138L1083.81 140.2C1080.61 142.733 1076.08 145.067 1070.21 147.2C1064.35 149.2 1057.81 150.2 1050.61 150.2C1043.55 150.2 1037.08 149.067 1031.21 146.8C1025.48 144.4 1020.48 141.067 1016.21 136.8C1012.08 132.533 1008.81 127.467 1006.41 121.6C1004.15 115.733 1003.01 109.2 1003.01 102C1003.01 94.6667 1004.21 88 1006.61 82C1009.01 76 1012.28 70.8667 1016.41 66.6C1020.68 62.3333 1025.61 59 1031.21 56.6C1036.95 54.2 1043.08 53 1049.61 53C1053.08 53 1056.95 53.4667 1061.21 54.4C1065.61 55.3333 1069.81 57.1333 1073.81 59.8C1077.81 62.3333 1081.41 66 1084.61 70.8C1087.81 75.4667 1090.01 81.6667 1091.21 89.4L1089.81 94.2ZM1049.81 62C1045.55 62 1041.68 62.7333 1038.21 64.2C1034.88 65.5333 1031.88 67.4 1029.21 69.8C1026.68 72.0667 1024.55 74.8 1022.81 78C1021.21 81.0667 1020.08 84.3333 1019.41 87.8H1027.21C1034.41 87.8 1041.41 87.7333 1048.21 87.6C1055.01 87.3333 1062.15 87 1069.61 86.6C1071.35 86.4667 1072.48 86 1073.01 85.2C1073.68 84.4 1074.01 83.4667 1074.01 82.4C1074.01 81.6 1073.95 80.8667 1073.81 80.2C1073.68 79.5333 1073.48 78.8667 1073.21 78.2C1071.75 73.1333 1069.01 69.2 1065.01 66.4C1061.01 63.4667 1055.95 62 1049.81 62ZM1182.89 146.6C1183.29 145.133 1183.62 142.933 1183.89 140C1184.29 137.067 1184.62 134.467 1184.89 132.2L1184.69 131.4C1180.96 137 1176.36 141.533 1170.89 145C1165.42 148.467 1159.16 150.2 1152.09 150.2C1144.49 150.2 1137.89 148.867 1132.29 146.2C1126.82 143.533 1122.29 140 1118.69 135.6C1115.22 131.2 1112.62 126.2 1110.89 120.6C1109.16 114.867 1108.29 108.933 1108.29 102.8C1108.29 93.7333 1109.69 86.0667 1112.49 79.8C1115.29 73.4 1118.82 68.2667 1123.09 64.4C1127.36 60.4 1132.02 57.5333 1137.09 55.8C1142.29 53.9333 1147.22 53 1151.89 53C1158.29 53 1164.42 54.4667 1170.29 57.4C1176.16 60.2 1181.16 65 1185.29 71.8L1185.69 71C1185.42 67.9333 1185.29 65 1185.29 62.2C1185.29 59.2667 1185.29 56.2667 1185.29 53.2C1185.29 47.7333 1185.29 43.1333 1185.29 39.4C1185.29 35.5333 1185.22 32.2 1185.09 29.4C1185.09 26.6 1185.02 24.1333 1184.89 22C1184.89 19.8667 1184.82 17.7333 1184.69 15.6C1184.56 14.1333 1184.16 12.8667 1183.49 11.8C1182.96 10.7333 1182.49 9.93333 1182.09 9.4C1180.76 7.93332 1179.09 6.99999 1177.09 6.6C1175.09 6.19999 1173.02 5.99999 1170.89 5.99999L1170.09 5.19999V2.59999L1170.89 1.8H1174.49C1176.76 1.8 1179.62 1.8 1183.09 1.8C1186.56 1.66666 1189.56 1.39999 1192.09 0.999997L1199.09 -1.90735e-06L1200.29 1.8C1200.02 2.33333 1199.76 3.33332 1199.49 4.8C1199.36 6.13333 1199.22 7.6 1199.09 9.2C1199.09 10.8 1199.02 12.3333 1198.89 13.8C1198.89 15.2667 1198.89 16.4 1198.89 17.2C1198.89 19.3333 1198.82 21.3333 1198.69 23.2C1198.69 25.0667 1198.69 27.2667 1198.69 29.8C1198.69 32.3333 1198.62 35.4 1198.49 39C1198.49 42.6 1198.49 47.2 1198.49 52.8V96.4C1198.49 102 1198.49 106.6 1198.49 110.2C1198.62 113.8 1198.69 116.867 1198.69 119.4C1198.82 121.933 1198.89 124.133 1198.89 126C1199.02 127.867 1199.16 130 1199.29 132.4C1199.56 135.467 1199.89 137.733 1200.29 139.2C1200.69 140.533 1201.29 141.533 1202.09 142.2C1203.29 143.267 1204.89 143.933 1206.89 144.2C1208.89 144.333 1210.96 144.4 1213.09 144.4L1213.89 145.2L1214.29 148L1213.89 148.8C1211.49 148.533 1208.89 148.333 1206.09 148.2C1203.42 148.067 1200.69 148 1197.89 148C1192.96 148 1188.42 148.2 1184.29 148.6L1182.89 146.6ZM1123.49 102.4C1123.49 106.933 1124.09 111.4 1125.29 115.8C1126.49 120.2 1128.29 124.133 1130.69 127.6C1133.09 130.933 1136.16 133.667 1139.89 135.8C1143.62 137.8 1148.09 138.8 1153.29 138.8C1158.22 138.8 1162.62 137.867 1166.49 136C1170.49 134.133 1173.82 131.867 1176.49 129.2C1179.16 126.533 1181.22 123.733 1182.69 120.8C1184.29 117.867 1185.16 115.333 1185.29 113.2V91C1185.02 88.8667 1184.16 86.2667 1182.69 83.2C1181.36 80.1333 1179.36 77.2 1176.69 74.4C1174.16 71.4667 1170.96 69 1167.09 67C1163.36 65 1158.89 64 1153.69 64C1148.36 64 1143.76 65.1333 1139.89 67.4C1136.16 69.5333 1133.02 72.4 1130.49 76C1128.09 79.6 1126.29 83.7333 1125.09 88.4C1124.02 92.9333 1123.49 97.6 1123.49 102.4Z" fill="white"/>
</svg>
