<svg width="195" height="32" viewBox="0 0 195 32" fill="none" xmlns="http://www.w3.org/2000/svg">
<path d="M10.664 24.352L5.448 9.824C5.21333 9.184 5.01067 8.65067 4.84 8.224C4.69067 7.79733 4.552 7.43467 4.424 7.136C4.31733 6.83733 4.22133 6.592 4.136 6.4C4.05067 6.208 3.976 6.02667 3.912 5.856C3.67733 5.32267 3.432 4.91733 3.176 4.64C2.94133 4.34133 2.696 4.128 2.44 4C2.184 3.85067 1.91733 3.76533 1.64 3.744C1.384 3.72267 1.11733 3.712 0.84 3.712L0.68 3.584L0.616 3.008L0.648 2.88C0.797333 2.88 1.01067 2.89067 1.288 2.912C1.58667 2.93333 1.896 2.95467 2.216 2.976C2.536 2.99733 2.84533 3.01867 3.144 3.04C3.44267 3.06133 3.66667 3.072 3.816 3.072H4.904C5.05333 3.072 5.29867 3.06133 5.64 3.04C5.98133 3.01867 6.33333 2.99733 6.696 2.976C7.08 2.95467 7.44267 2.93333 7.784 2.912C8.12533 2.89067 8.37067 2.88 8.52 2.88L8.584 3.008L8.488 3.584L8.328 3.712C7.70933 3.712 7.22933 3.78667 6.888 3.936C6.54667 4.064 6.376 4.43733 6.376 5.056C6.376 5.54667 6.536 6.24 6.856 7.136C7.19733 8.01067 7.61333 9.12 8.104 10.464L10.28 16.352C10.6853 17.4613 11.0373 18.464 11.336 19.36C11.656 20.2347 11.944 20.992 12.2 21.632C12.4347 21.0133 12.712 20.2773 13.032 19.424C13.3733 18.5707 13.7573 17.5467 14.184 16.352L16.36 10.464C16.6587 9.632 16.9253 8.896 17.16 8.256C17.416 7.616 17.6293 7.04 17.8 6.528C17.6933 6.18667 17.5653 5.856 17.416 5.536C17.288 5.216 17.1173 4.928 16.904 4.672C16.712 4.416 16.456 4.20267 16.136 4.032C15.816 3.86133 15.4213 3.75467 14.952 3.712L14.792 3.584L14.728 3.008L14.76 2.88C14.9093 2.88 15.1227 2.89067 15.4 2.912C15.6987 2.93333 15.9973 2.95467 16.296 2.976C16.616 2.99733 16.9147 3.01867 17.192 3.04C17.4907 3.06133 17.7147 3.072 17.864 3.072H18.92C19.0693 3.072 19.304 3.06133 19.624 3.04C19.944 3.01867 20.2853 2.99733 20.648 2.976C21.0107 2.95467 21.352 2.93333 21.672 2.912C21.992 2.89067 22.2267 2.88 22.376 2.88L22.44 3.008L22.344 3.584L22.184 3.712C21.9493 3.712 21.6933 3.75467 21.416 3.84C21.16 3.904 20.9147 4.01067 20.68 4.16C20.4667 4.30933 20.2853 4.49067 20.136 4.704C20.008 4.91733 19.944 5.16267 19.944 5.44C19.944 5.65333 19.9653 5.80267 20.008 5.888C20.136 6.42133 20.3387 7.06133 20.616 7.808C20.9147 8.55467 21.2453 9.44 21.608 10.464L23.784 16.352C24.1893 17.44 24.552 18.4427 24.872 19.36C25.192 20.256 25.4693 21.0133 25.704 21.632C25.9387 21.0133 26.216 20.2773 26.536 19.424C26.8773 18.5707 27.2613 17.5467 27.688 16.352L29.864 10.464C30.3547 9.12 30.76 8.01067 31.08 7.136C31.4213 6.24 31.592 5.54667 31.592 5.056C31.592 4.43733 31.4213 4.064 31.08 3.936C30.7387 3.78667 30.2587 3.712 29.64 3.712L29.512 3.584L29.416 3.008L29.48 2.88C29.6293 2.88 29.864 2.89067 30.184 2.912C30.504 2.93333 30.8347 2.95467 31.176 2.976C31.5173 2.99733 31.848 3.01867 32.168 3.04C32.488 3.06133 32.7227 3.072 32.872 3.072H33.48C33.6293 3.072 33.8427 3.06133 34.12 3.04C34.4187 3.01867 34.728 2.99733 35.048 2.976C35.368 2.95467 35.6773 2.93333 35.976 2.912C36.2747 2.89067 36.4987 2.88 36.648 2.88L36.712 3.008L36.616 3.584L36.456 3.712C36.1787 3.712 35.912 3.72267 35.656 3.744C35.4 3.76533 35.144 3.85067 34.888 4C34.632 4.128 34.376 4.34133 34.12 4.64C33.8853 4.91733 33.64 5.32267 33.384 5.856C33.32 6.02667 33.224 6.24 33.096 6.496C32.9893 6.752 32.7973 7.232 32.52 7.936C32.2427 8.64 31.8373 9.65333 31.304 10.976C30.792 12.2773 30.0987 14.0587 29.224 16.32C28.9253 17.0667 28.616 17.8453 28.296 18.656C27.9973 19.4453 27.6987 20.2027 27.4 20.928C27.1227 21.632 26.8773 22.2613 26.664 22.816C26.4507 23.3707 26.3013 23.7653 26.216 24L24.552 24.352H24.168L18.6 8.928C18.3013 9.67467 17.9173 10.6347 17.448 11.808C17 12.9813 16.424 14.4853 15.72 16.32C15.4427 17.0667 15.144 17.8453 14.824 18.656C14.504 19.4453 14.1947 20.2027 13.896 20.928C13.6187 21.632 13.3733 22.2613 13.16 22.816C12.9467 23.3707 12.7973 23.7653 12.712 24L11.048 24.352H10.664ZM49.235 15.392L48.723 15.616C47.571 15.616 46.387 15.6267 45.171 15.648C43.955 15.6693 42.7603 15.68 41.587 15.68H37.811C37.7897 15.8293 37.779 15.9787 37.779 16.128C37.779 16.256 37.779 16.384 37.779 16.512C37.779 17.3227 37.8963 18.1013 38.131 18.848C38.3657 19.5733 38.7283 20.2133 39.219 20.768C39.731 21.3227 40.3817 21.7707 41.171 22.112C41.9603 22.432 42.9203 22.592 44.051 22.592C44.7123 22.592 45.4163 22.528 46.163 22.4C46.931 22.2507 47.635 21.9947 48.275 21.632L48.595 21.824V22.4L48.275 22.752C47.763 23.1573 47.0377 23.5307 46.099 23.872C45.1603 24.192 44.115 24.352 42.963 24.352C41.8323 24.352 40.7977 24.1707 39.859 23.808C38.9417 23.424 38.1417 22.8907 37.459 22.208C36.7977 21.5253 36.275 20.7147 35.891 19.776C35.5283 18.8373 35.347 17.792 35.347 16.64C35.347 15.4667 35.539 14.4 35.923 13.44C36.307 12.48 36.8297 11.6587 37.491 10.976C38.1737 10.2933 38.963 9.76 39.859 9.376C40.7763 8.992 41.7577 8.8 42.803 8.8C43.3577 8.8 43.9763 8.87467 44.659 9.024C45.363 9.17333 46.035 9.46133 46.675 9.888C47.315 10.2933 47.891 10.88 48.403 11.648C48.915 12.3947 49.267 13.3867 49.459 14.624L49.235 15.392ZM42.835 10.24C42.1523 10.24 41.5337 10.3573 40.979 10.592C40.4457 10.8053 39.9657 11.104 39.539 11.488C39.1337 11.8507 38.7923 12.288 38.515 12.8C38.259 13.2907 38.0777 13.8133 37.971 14.368H39.219C40.371 14.368 41.491 14.3573 42.579 14.336C43.667 14.2933 44.8083 14.24 46.003 14.176C46.2803 14.1547 46.4617 14.08 46.547 13.952C46.6537 13.824 46.707 13.6747 46.707 13.504C46.707 13.376 46.6963 13.2587 46.675 13.152C46.6537 13.0453 46.6217 12.9387 46.579 12.832C46.3443 12.0213 45.907 11.392 45.267 10.944C44.627 10.4747 43.8163 10.24 42.835 10.24ZM51.5195 0.735998L51.6475 0.608H52.2235C52.5862 0.608 53.0448 0.608 53.5995 0.608C54.1542 0.586665 54.6342 0.543999 55.0395 0.48L56.1915 0.32L56.3835 0.608C56.3408 0.693332 56.3088 0.853332 56.2875 1.088C56.2662 1.30133 56.2448 1.536 56.2235 1.792C56.2022 2.048 56.1808 2.29333 56.1595 2.528C56.1595 2.76267 56.1595 2.944 56.1595 3.072C56.1382 3.41333 56.1168 3.73333 56.0955 4.032C56.0955 4.33067 56.0848 4.68267 56.0635 5.088C56.0635 5.49333 56.0635 5.984 56.0635 6.56C56.0635 7.136 56.0635 7.872 56.0635 8.768V15.744C56.0635 16.64 56.0635 17.376 56.0635 17.952C56.0848 18.528 56.0955 19.0187 56.0955 19.424C56.1168 19.8293 56.1275 20.1813 56.1275 20.48C56.1488 20.7787 56.1702 21.12 56.1915 21.504C56.2342 21.952 56.2768 22.2933 56.3195 22.528C56.3835 22.7413 56.5008 22.9227 56.6715 23.072C56.8422 23.2213 57.0768 23.3173 57.3755 23.36C57.6955 23.4027 58.0155 23.424 58.3355 23.424L58.4955 23.584L58.5595 24L58.4955 24.128C58.3462 24.128 58.1222 24.1173 57.8235 24.096C57.5248 24.0747 57.2048 24.0533 56.8635 24.032C56.5222 24.032 56.2022 24.0213 55.9035 24C55.6048 24 55.3808 24 55.2315 24H54.7835C54.6342 24 54.3995 24 54.0795 24C53.7808 24.0213 53.4608 24.032 53.1195 24.032C52.7995 24.0533 52.4795 24.0747 52.1595 24.096C51.8608 24.1173 51.6368 24.128 51.4875 24.128L51.4555 24L51.4875 23.552L51.6155 23.424C51.9568 23.424 52.2875 23.4133 52.6075 23.392C52.9488 23.3493 53.2048 23.2427 53.3755 23.072C53.5462 22.9227 53.6528 22.7307 53.6955 22.496C53.7595 22.2613 53.8128 21.9307 53.8555 21.504C53.8768 21.2267 53.8875 20.9493 53.8875 20.672C53.9088 20.3947 53.9195 20.0747 53.9195 19.712C53.9408 19.328 53.9515 18.8907 53.9515 18.4C53.9515 17.888 53.9515 17.2587 53.9515 16.512V8.832C53.9515 7.95733 53.9515 7.22133 53.9515 6.624C53.9515 6.00533 53.9408 5.472 53.9195 5.024C53.9195 4.576 53.9088 4.18133 53.8875 3.84C53.8875 3.49867 53.8768 3.15733 53.8555 2.816C53.8342 2.58133 53.7702 2.37867 53.6635 2.208C53.5782 2.03733 53.5035 1.90933 53.4395 1.824C53.2262 1.58933 52.9595 1.44 52.6395 1.376C52.3195 1.312 51.9888 1.28 51.6475 1.28L51.5195 1.152V0.735998ZM60.1445 0.735998L60.2725 0.608H60.8485C61.2112 0.608 61.6698 0.608 62.2245 0.608C62.7792 0.586665 63.2592 0.543999 63.6645 0.48L64.8165 0.32L65.0085 0.608C64.9658 0.693332 64.9338 0.853332 64.9125 1.088C64.8912 1.30133 64.8698 1.536 64.8485 1.792C64.8272 2.048 64.8058 2.29333 64.7845 2.528C64.7845 2.76267 64.7845 2.944 64.7845 3.072C64.7632 3.41333 64.7418 3.73333 64.7205 4.032C64.7205 4.33067 64.7098 4.68267 64.6885 5.088C64.6885 5.49333 64.6885 5.984 64.6885 6.56C64.6885 7.136 64.6885 7.872 64.6885 8.768V15.744C64.6885 16.64 64.6885 17.376 64.6885 17.952C64.7098 18.528 64.7205 19.0187 64.7205 19.424C64.7418 19.8293 64.7525 20.1813 64.7525 20.48C64.7738 20.7787 64.7952 21.12 64.8165 21.504C64.8592 21.952 64.9018 22.2933 64.9445 22.528C65.0085 22.7413 65.1258 22.9227 65.2965 23.072C65.4672 23.2213 65.7018 23.3173 66.0005 23.36C66.3205 23.4027 66.6405 23.424 66.9605 23.424L67.1205 23.584L67.1845 24L67.1205 24.128C66.9712 24.128 66.7472 24.1173 66.4485 24.096C66.1498 24.0747 65.8298 24.0533 65.4885 24.032C65.1472 24.032 64.8272 24.0213 64.5285 24C64.2298 24 64.0058 24 63.8565 24H63.4085C63.2592 24 63.0245 24 62.7045 24C62.4058 24.0213 62.0858 24.032 61.7445 24.032C61.4245 24.0533 61.1045 24.0747 60.7845 24.096C60.4858 24.1173 60.2618 24.128 60.1125 24.128L60.0805 24L60.1125 23.552L60.2405 23.424C60.5818 23.424 60.9125 23.4133 61.2325 23.392C61.5738 23.3493 61.8298 23.2427 62.0005 23.072C62.1712 22.9227 62.2778 22.7307 62.3205 22.496C62.3845 22.2613 62.4378 21.9307 62.4805 21.504C62.5018 21.2267 62.5125 20.9493 62.5125 20.672C62.5338 20.3947 62.5445 20.0747 62.5445 19.712C62.5658 19.328 62.5765 18.8907 62.5765 18.4C62.5765 17.888 62.5765 17.2587 62.5765 16.512V8.832C62.5765 7.95733 62.5765 7.22133 62.5765 6.624C62.5765 6.00533 62.5658 5.472 62.5445 5.024C62.5445 4.576 62.5338 4.18133 62.5125 3.84C62.5125 3.49867 62.5018 3.15733 62.4805 2.816C62.4592 2.58133 62.3952 2.37867 62.2885 2.208C62.2032 2.03733 62.1285 1.90933 62.0645 1.824C61.8512 1.58933 61.5845 1.44 61.2645 1.376C60.9445 1.312 60.6138 1.28 60.2725 1.28L60.1445 1.152V0.735998ZM69.9215 22.88C69.9215 22.4747 70.0602 22.1227 70.3375 21.824C70.6148 21.504 70.9668 21.344 71.3935 21.344C71.7988 21.344 72.1508 21.504 72.4495 21.824C72.7695 22.1227 72.9295 22.4747 72.9295 22.88C72.9295 23.2853 72.7695 23.6373 72.4495 23.936C72.1508 24.2133 71.7988 24.352 71.3935 24.352C70.9668 24.352 70.6148 24.2133 70.3375 23.936C70.0602 23.6373 69.9215 23.2853 69.9215 22.88ZM79.995 24H75.195C76.027 22.912 76.667 20.736 76.667 17.376V8.224C76.667 4.864 76.027 2.688 75.195 1.6H79.835C87.675 1.6 92.539 6.112 92.539 12.768C92.539 19.488 87.675 24 79.995 24ZM78.683 1.92V23.68H79.995C85.083 23.68 90.139 19.872 90.139 12.768C90.139 5.696 84.955 1.92 79.835 1.92H78.683ZM109.825 16.352H109.857C109.793 20.64 106.177 24.256 101.76 24.256C97.3125 24.256 93.6965 20.768 93.6965 16.096C93.6965 11.264 97.4405 7.744 101.985 7.744C105.665 7.744 108.225 10.24 108.225 13.856H95.8725C95.7765 14.368 95.7445 14.88 95.7445 15.456C95.7445 19.456 98.7845 22.208 102.369 22.208C106.497 22.208 109.281 19.648 109.825 16.352ZM101.729 8.096C99.0085 8.096 96.5765 10.144 95.9365 13.536H101.185C104.705 13.536 105.633 12.192 105.633 10.848C105.633 9.152 103.873 8.096 101.729 8.096ZM122.131 19.552C122.419 22.432 119.507 24.256 116.147 24.256C113.779 24.256 112.147 23.776 110.835 23.328L110.579 18.336H110.643C112.467 23.008 114.675 23.936 116.403 23.904C118.803 23.84 120.371 22.688 120.339 20.8C120.307 18.848 118.003 18.016 115.667 16.832C113.203 15.584 110.771 14.496 110.643 11.936C110.515 9.184 112.915 7.744 116.531 7.744C118.611 7.744 119.923 8.288 121.011 8.8L121.267 13.344H121.203C119.923 10.304 118.611 8.096 115.795 8.096C113.907 8.096 112.115 9.152 112.243 10.912C112.371 12.896 114.355 13.568 116.595 14.688C119.251 16.032 121.875 17.12 122.131 19.552ZM123.169 4.096C123.169 3.168 123.937 2.4 124.865 2.4C125.825 2.4 126.529 3.168 126.529 4.096C126.529 5.024 125.825 5.76 124.865 5.76C123.937 5.76 123.169 5.024 123.169 4.096ZM122.913 9.568V9.44L126.305 7.744V18.4C126.305 21.344 126.945 23.264 127.809 24H124.225L124.417 14.368C124.449 11.968 123.905 10.368 122.913 9.568ZM127.551 29.216C127.551 26.272 130.431 24.864 133.887 23.168C138.463 20.928 140.223 18.976 140.223 15.392C140.223 11.552 137.759 8.288 134.111 8.288C131.711 8.288 130.335 10.496 130.335 13.184C130.335 16.96 132.671 19.904 136.543 20.512C135.839 20.768 135.071 20.896 134.303 20.896C130.815 20.896 128.415 18.24 128.415 14.464C128.415 10.496 131.519 7.744 135.455 7.744C137.183 7.744 138.591 8.256 139.679 9.056L141.087 5.536H144.095V5.568C142.367 6.592 141.343 7.456 139.743 9.12C141.503 10.432 142.335 12.288 142.335 14.08C142.335 17.248 140.703 19.456 137.439 21.504C134.687 23.232 129.439 27.008 129.439 30.176C129.439 31.072 130.079 31.52 130.623 31.52C133.823 31.52 137.407 25.28 143.007 23.392V26.432C138.111 27.008 134.239 31.936 130.335 31.936C128.703 31.936 127.551 30.848 127.551 29.216ZM143.601 9.568V9.44L146.993 7.744V10.176C148.273 8.576 149.745 7.744 151.441 7.744C154.321 7.744 155.441 9.376 156.273 14.016L157.169 19.008C157.713 22.112 158.673 23.36 159.472 24H155.921L154.321 14.464C153.713 10.848 152.657 8.8 150.513 8.832C148.945 8.864 147.953 9.6 146.993 10.56V18.4C146.993 21.344 147.633 23.264 148.497 24H144.913L145.105 14.368C145.137 11.968 144.593 10.368 143.601 9.568ZM174.829 15.392L174.317 15.616C173.165 15.616 171.981 15.6267 170.765 15.648C169.549 15.6693 168.354 15.68 167.181 15.68H163.405C163.383 15.8293 163.373 15.9787 163.373 16.128C163.373 16.256 163.373 16.384 163.373 16.512C163.373 17.3227 163.49 18.1013 163.725 18.848C163.959 19.5733 164.322 20.2133 164.813 20.768C165.325 21.3227 165.975 21.7707 166.765 22.112C167.554 22.432 168.514 22.592 169.645 22.592C170.306 22.592 171.01 22.528 171.757 22.4C172.525 22.2507 173.229 21.9947 173.869 21.632L174.189 21.824V22.4L173.869 22.752C173.357 23.1573 172.631 23.5307 171.693 23.872C170.754 24.192 169.709 24.352 168.557 24.352C167.426 24.352 166.391 24.1707 165.453 23.808C164.535 23.424 163.735 22.8907 163.053 22.208C162.391 21.5253 161.869 20.7147 161.485 19.776C161.122 18.8373 160.941 17.792 160.941 16.64C160.941 15.4667 161.133 14.4 161.517 13.44C161.901 12.48 162.423 11.6587 163.085 10.976C163.767 10.2933 164.557 9.76 165.453 9.376C166.37 8.992 167.351 8.8 168.397 8.8C168.951 8.8 169.57 8.87467 170.253 9.024C170.957 9.17333 171.629 9.46133 172.269 9.888C172.909 10.2933 173.485 10.88 173.997 11.648C174.509 12.3947 174.861 13.3867 175.053 14.624L174.829 15.392ZM168.429 10.24C167.746 10.24 167.127 10.3573 166.573 10.592C166.039 10.8053 165.559 11.104 165.133 11.488C164.727 11.8507 164.386 12.288 164.109 12.8C163.853 13.2907 163.671 13.8133 163.565 14.368H164.813C165.965 14.368 167.085 14.3573 168.173 14.336C169.261 14.2933 170.402 14.24 171.597 14.176C171.874 14.1547 172.055 14.08 172.141 13.952C172.247 13.824 172.301 13.6747 172.301 13.504C172.301 13.376 172.29 13.2587 172.269 13.152C172.247 13.0453 172.215 12.9387 172.173 12.832C171.938 12.0213 171.501 11.392 170.861 10.944C170.221 10.4747 169.41 10.24 168.429 10.24ZM189.721 23.776C189.785 23.5413 189.839 23.1893 189.881 22.72C189.945 22.2507 189.999 21.8347 190.041 21.472L190.009 21.344C189.412 22.24 188.676 22.9653 187.801 23.52C186.927 24.0747 185.924 24.352 184.793 24.352C183.577 24.352 182.521 24.1387 181.625 23.712C180.751 23.2853 180.025 22.72 179.449 22.016C178.895 21.312 178.479 20.512 178.201 19.616C177.924 18.6987 177.785 17.7493 177.785 16.768C177.785 15.3173 178.009 14.0907 178.457 13.088C178.905 12.064 179.471 11.2427 180.153 10.624C180.836 9.984 181.583 9.52533 182.393 9.248C183.225 8.94933 184.015 8.8 184.761 8.8C185.785 8.8 186.767 9.03467 187.705 9.504C188.644 9.952 189.444 10.72 190.105 11.808L190.169 11.68C190.127 11.1893 190.105 10.72 190.105 10.272C190.105 9.80267 190.105 9.32267 190.105 8.832C190.105 7.95733 190.105 7.22133 190.105 6.624C190.105 6.00533 190.095 5.472 190.073 5.024C190.073 4.576 190.063 4.18133 190.041 3.84C190.041 3.49867 190.031 3.15733 190.009 2.816C189.988 2.58133 189.924 2.37867 189.817 2.208C189.732 2.03733 189.657 1.90933 189.593 1.824C189.38 1.58933 189.113 1.44 188.793 1.376C188.473 1.312 188.143 1.28 187.801 1.28L187.673 1.152V0.735998L187.801 0.608H188.377C188.74 0.608 189.199 0.608 189.753 0.608C190.308 0.586665 190.788 0.543999 191.193 0.48L192.313 0.32L192.505 0.608C192.463 0.693332 192.42 0.853332 192.377 1.088C192.356 1.30133 192.335 1.536 192.313 1.792C192.313 2.048 192.303 2.29333 192.281 2.528C192.281 2.76267 192.281 2.944 192.281 3.072C192.281 3.41333 192.271 3.73333 192.249 4.032C192.249 4.33067 192.249 4.68267 192.249 5.088C192.249 5.49333 192.239 5.984 192.217 6.56C192.217 7.136 192.217 7.872 192.217 8.768V15.744C192.217 16.64 192.217 17.376 192.217 17.952C192.239 18.528 192.249 19.0187 192.249 19.424C192.271 19.8293 192.281 20.1813 192.281 20.48C192.303 20.7787 192.324 21.12 192.345 21.504C192.388 21.9947 192.441 22.3573 192.505 22.592C192.569 22.8053 192.665 22.9653 192.793 23.072C192.985 23.2427 193.241 23.3493 193.561 23.392C193.881 23.4133 194.212 23.424 194.553 23.424L194.681 23.552L194.745 24L194.681 24.128C194.297 24.0853 193.881 24.0533 193.433 24.032C193.007 24.0107 192.569 24 192.121 24C191.332 24 190.607 24.032 189.945 24.096L189.721 23.776ZM180.217 16.704C180.217 17.4293 180.313 18.144 180.505 18.848C180.697 19.552 180.985 20.1813 181.369 20.736C181.753 21.2693 182.244 21.7067 182.841 22.048C183.439 22.368 184.153 22.528 184.985 22.528C185.775 22.528 186.479 22.3787 187.097 22.08C187.737 21.7813 188.271 21.4187 188.697 20.992C189.124 20.5653 189.455 20.1173 189.689 19.648C189.945 19.1787 190.084 18.7733 190.105 18.432V14.88C190.063 14.5387 189.924 14.1227 189.689 13.632C189.476 13.1413 189.156 12.672 188.729 12.224C188.324 11.7547 187.812 11.36 187.193 11.04C186.596 10.72 185.881 10.56 185.049 10.56C184.196 10.56 183.46 10.7413 182.841 11.104C182.244 11.4453 181.743 11.904 181.337 12.48C180.953 13.056 180.665 13.7173 180.473 14.464C180.303 15.1893 180.217 15.936 180.217 16.704Z" fill="white"/>
</svg>
